<?xml version="1.0" encoding="UTF-8"?>
<!DOCTYPE svg PUBLIC "-//W3C//DTD SVG 1.1//EN" "http://www.w3.org/Graphics/SVG/1.1/DTD/svg11.dtd">
<svg version="1.2" width="1199.44mm" height="254mm" viewBox="0 0 119944 25400" preserveAspectRatio="xMidYMid" fill-rule="evenodd" stroke-width="28.222" stroke-linejoin="round" xmlns="http://www.w3.org/2000/svg" xmlns:ooo="http://xml.openoffice.org/svg/export" xmlns:xlink="http://www.w3.org/1999/xlink" xmlns:presentation="http://sun.com/xmlns/staroffice/presentation" xmlns:smil="http://www.w3.org/2001/SMIL20/" xmlns:anim="urn:oasis:names:tc:opendocument:xmlns:animation:1.0" xml:space="preserve">
 <defs class="ClipPathGroup">
  <clipPath id="presentation_clip_path" clipPathUnits="userSpaceOnUse">
   <rect x="0" y="0" width="119944" height="25400"/>
  </clipPath>
  <clipPath id="presentation_clip_path_shrink" clipPathUnits="userSpaceOnUse">
   <rect x="119" y="25" width="119705" height="25350"/>
  </clipPath>
 </defs>
 <defs class="TextShapeIndex">
  <g ooo:slide="id1" ooo:id-list="id3 id4 id5 id6 id7 id8 id9 id10 id11 id12 id13 id14 id15 id16 id17 id18 id19 id20 id21 id22 id23 id24 id25 id26 id27 id28 id29 id30 id31 id32 id33 id34 id35 id36 id37 id38 id39 id40 id41 id42 id43 id44 id45 id46 id47 id48 id49 id50 id51 id52 id53 id54 id55 id56 id57 id58 id59 id60 id61 id62 id63 id64 id65 id66 id67 id68 id69 id70 id71 id72 id73 id74 id75 id76 id77 id78 id79 id80 id81 id82"/>
 </defs>
 <defs class="EmbeddedBulletChars">
  <g id="bullet-char-template-57356" transform="scale(0.00048828125,-0.00048828125)">
   <path d="M 580,1141 L 1163,571 580,0 -4,571 580,1141 Z"/>
  </g>
  <g id="bullet-char-template-57354" transform="scale(0.00048828125,-0.00048828125)">
   <path d="M 8,1128 L 1137,1128 1137,0 8,0 8,1128 Z"/>
  </g>
  <g id="bullet-char-template-10146" transform="scale(0.00048828125,-0.00048828125)">
   <path d="M 174,0 L 602,739 174,1481 1456,739 174,0 Z M 1358,739 L 309,1346 659,739 1358,739 Z"/>
  </g>
  <g id="bullet-char-template-10132" transform="scale(0.00048828125,-0.00048828125)">
   <path d="M 2015,739 L 1276,0 717,0 1260,543 174,543 174,936 1260,936 717,1481 1274,1481 2015,739 Z"/>
  </g>
  <g id="bullet-char-template-10007" transform="scale(0.00048828125,-0.00048828125)">
   <path d="M 0,-2 C -7,14 -16,27 -25,37 L 356,567 C 262,823 215,952 215,954 215,979 228,992 255,992 264,992 276,990 289,987 310,991 331,999 354,1012 L 381,999 492,748 772,1049 836,1024 860,1049 C 881,1039 901,1025 922,1006 886,937 835,863 770,784 769,783 710,716 594,584 L 774,223 C 774,196 753,168 711,139 L 727,119 C 717,90 699,76 672,76 641,76 570,178 457,381 L 164,-76 C 142,-110 111,-127 72,-127 30,-127 9,-110 8,-76 1,-67 -2,-52 -2,-32 -2,-23 -1,-13 0,-2 Z"/>
  </g>
  <g id="bullet-char-template-10004" transform="scale(0.00048828125,-0.00048828125)">
   <path d="M 285,-33 C 182,-33 111,30 74,156 52,228 41,333 41,471 41,549 55,616 82,672 116,743 169,778 240,778 293,778 328,747 346,684 L 369,508 C 377,444 397,411 428,410 L 1163,1116 C 1174,1127 1196,1133 1229,1133 1271,1133 1292,1118 1292,1087 L 1292,965 C 1292,929 1282,901 1262,881 L 442,47 C 390,-6 338,-33 285,-33 Z"/>
  </g>
  <g id="bullet-char-template-9679" transform="scale(0.00048828125,-0.00048828125)">
   <path d="M 813,0 C 632,0 489,54 383,161 276,268 223,411 223,592 223,773 276,916 383,1023 489,1130 632,1184 813,1184 992,1184 1136,1130 1245,1023 1353,916 1407,772 1407,592 1407,412 1353,268 1245,161 1136,54 992,0 813,0 Z"/>
  </g>
  <g id="bullet-char-template-8226" transform="scale(0.00048828125,-0.00048828125)">
   <path d="M 346,457 C 273,457 209,483 155,535 101,586 74,649 74,723 74,796 101,859 155,911 209,963 273,989 346,989 419,989 480,963 531,910 582,859 608,796 608,723 608,648 583,586 532,535 482,483 420,457 346,457 Z"/>
  </g>
  <g id="bullet-char-template-8211" transform="scale(0.00048828125,-0.00048828125)">
   <path d="M -4,459 L 1135,459 1135,606 -4,606 -4,459 Z"/>
  </g>
  <g id="bullet-char-template-61548" transform="scale(0.00048828125,-0.00048828125)">
   <path d="M 173,740 C 173,903 231,1043 346,1159 462,1274 601,1332 765,1332 928,1332 1067,1274 1183,1159 1299,1043 1357,903 1357,740 1357,577 1299,437 1183,322 1067,206 928,148 765,148 601,148 462,206 346,322 231,437 173,577 173,740 Z"/>
  </g>
 </defs>
 <defs class="TextEmbeddedBitmaps"/>
 <g>
  <g id="id2" class="Master_Slide">
   <g id="bg-id2" class="Background"/>
   <g id="bo-id2" class="BackgroundObjects"/>
  </g>
 </g>
 <g class="SlideGroup">
  <g>
   <g id="container-id1">
    <g id="id1" class="Slide" clip-path="url(#presentation_clip_path)">
     <g class="Page">
      <g class="com.sun.star.drawing.ClosedBezierShape">
       <g id="id3">
        <rect class="BoundingBox" stroke="none" fill="none" x="12956" y="0" width="1996" height="11996"/>
        <path fill="rgb(0,0,0)" stroke="none" d="M 13944,564 L 12956,1125 12978,1367 C 12991,1499 13309,3916 13688,6734 14068,9552 14377,11890 14377,11925 14377,11978 14425,11995 14588,11995 14703,11995 14818,11978 14849,11960 14888,11934 14910,10522 14933,5962 14950,2686 14955,0 14946,0 14937,0 14487,256 13944,564 Z"/>
       </g>
      </g>
      <g class="com.sun.star.drawing.ClosedBezierShape">
       <g id="id4">
        <rect class="BoundingBox" stroke="none" fill="none" x="9031" y="591" width="4944" height="11671"/>
        <path fill="rgb(0,0,0)" stroke="none" d="M 10076,1138 C 9785,1438 9432,1813 9291,1967 L 9031,2249 9816,3978 C 10244,4931 11060,6743 11629,8004 13314,11740 13547,12260 13556,12260 13565,12260 13662,12229 13777,12190 13971,12123 13989,12106 13966,12000 13940,11885 10628,600 10614,591 10610,587 10367,834 10076,1138 Z"/>
       </g>
      </g>
      <g class="com.sun.star.drawing.ClosedBezierShape">
       <g id="id5">
        <rect class="BoundingBox" stroke="none" fill="none" x="15375" y="793" width="3977" height="11287"/>
        <path fill="rgb(0,0,0)" stroke="none" d="M 18918,865 C 18689,917 18169,1037 17758,1125 17119,1270 17017,1306 17000,1385 16973,1495 15394,11749 15377,11907 15368,12004 15390,12018 15579,12053 15694,12075 15800,12084 15809,12075 15822,12062 16078,11272 16378,10315 18826,2545 19364,825 19351,798 19342,781 19148,807 18918,865 Z"/>
       </g>
      </g>
      <g class="com.sun.star.drawing.ClosedBezierShape">
       <g id="id6">
        <rect class="BoundingBox" stroke="none" fill="none" x="5652" y="2517" width="7492" height="10226"/>
        <path fill="rgb(0,0,0)" stroke="none" d="M 6535,2540 C 6403,2796 5640,4599 5653,4630 5662,4652 6747,5896 8070,7396 9389,8895 10990,10712 11620,11431 12251,12150 12785,12741 12807,12741 12864,12745 13142,12529 13142,12476 13142,12427 12538,11501 9274,6549 6544,2403 6579,2456 6535,2540 Z"/>
       </g>
      </g>
      <g class="com.sun.star.drawing.ClosedBezierShape">
       <g id="id7">
        <rect class="BoundingBox" stroke="none" fill="none" x="16214" y="2491" width="7151" height="10032"/>
        <path fill="rgb(0,0,0)" stroke="none" d="M 20087,4335 C 19579,5359 18494,7555 17674,9213 16854,10876 16197,12247 16214,12260 16236,12278 16338,12344 16448,12406 L 16647,12521 19998,7577 C 21842,4860 23355,2620 23363,2602 23372,2585 22883,2554 22283,2540 21683,2523 21150,2501 21097,2492 21017,2474 20903,2682 20087,4335 Z"/>
       </g>
      </g>
      <g class="com.sun.star.drawing.ClosedBezierShape">
       <g id="id8">
        <rect class="BoundingBox" stroke="none" fill="none" x="16933" y="4732" width="9571" height="8359"/>
        <path fill="rgb(0,0,0)" stroke="none" d="M 20695,8741 L 16933,12767 17101,12935 C 17189,13023 17286,13094 17312,13089 17343,13081 18344,12260 19544,11268 20743,10271 22803,8569 24113,7480 25427,6390 26503,5491 26503,5473 26503,5455 24863,4847 24496,4732 24474,4723 22759,6531 20695,8741 Z"/>
       </g>
      </g>
      <g class="com.sun.star.drawing.ClosedBezierShape">
       <g id="id9">
        <rect class="BoundingBox" stroke="none" fill="none" x="3045" y="5470" width="9495" height="7944"/>
        <path fill="rgb(0,0,0)" stroke="none" d="M 3303,5473 C 3303,5482 3237,5985 3158,6593 3052,7400 3025,7709 3061,7744 3087,7771 3607,8101 4212,8476 4820,8851 6642,9989 8269,11003 9896,12013 11449,12984 11722,13151 12265,13491 12260,13491 12441,13200 L 12538,13045 12432,12944 C 12335,12851 9535,10554 5182,6994 4238,6218 3427,5557 3387,5521 3343,5486 3308,5464 3303,5473 Z"/>
       </g>
      </g>
      <g class="com.sun.star.drawing.ClosedBezierShape">
       <g id="id10">
        <rect class="BoundingBox" stroke="none" fill="none" x="39336" y="1162" width="880" height="2171"/>
        <path fill="rgb(0,0,0)" stroke="none" d="M 39464,1469 C 39298,1864 39293,2618 39454,2977 39616,3336 39735,3412 39926,3252 40243,3003 40319,1915 40053,1407 39876,1060 39616,1085 39464,1469 Z"/>
       </g>
      </g>
      <g class="com.sun.star.drawing.ClosedBezierShape">
       <g id="id11">
        <rect class="BoundingBox" stroke="none" fill="none" x="51738" y="1142" width="862" height="2178"/>
        <path fill="rgb(0,0,0)" stroke="none" d="M 51868,1466 C 51693,1886 51697,2618 51868,3014 52151,3670 52598,3199 52598,2245 52598,1270 52145,773 51868,1466 Z"/>
       </g>
      </g>
      <g class="com.sun.star.drawing.ClosedBezierShape">
       <g id="id12">
        <rect class="BoundingBox" stroke="none" fill="none" x="80271" y="1142" width="898" height="2198"/>
        <path fill="rgb(0,0,0)" stroke="none" d="M 80399,1542 C 80233,2024 80228,2557 80389,2952 80555,3361 80726,3448 80917,3202 81203,2840 81249,2074 81028,1516 80822,1009 80576,1020 80399,1542 Z"/>
       </g>
      </g>
      <g class="com.sun.star.drawing.ClosedBezierShape">
       <g id="id13">
        <rect class="BoundingBox" stroke="none" fill="none" x="102567" y="1162" width="878" height="2185"/>
        <path fill="rgb(0,0,0)" stroke="none" d="M 102691,1469 C 102470,2002 102560,3003 102852,3275 103309,3695 103661,2150 103284,1407 103103,1060 102842,1085 102691,1469 Z"/>
       </g>
      </g>
      <g class="com.sun.star.drawing.ClosedBezierShape">
       <g id="id14">
        <rect class="BoundingBox" stroke="none" fill="none" x="31353" y="1403" width="4071" height="9963"/>
        <path fill="rgb(0,0,0)" stroke="none" d="M 31353,1527 C 31353,1589 31418,1651 31494,1651 31574,1651 31680,1726 31735,1824 31826,1984 31830,2220 31855,5570 31880,8873 31891,9170 31986,9703 32101,10320 32318,10791 32639,11136 32935,11458 33764,11433 34066,11100 34372,10755 34603,10258 34734,9642 34834,9170 34845,8924 34870,5708 34895,2307 34895,2281 35016,1973 35091,1774 35191,1651 35281,1651 35357,1651 35422,1589 35422,1527 35422,1454 35161,1404 34743,1404 34327,1404 34066,1454 34066,1527 34066,1589 34136,1651 34216,1651 34312,1651 34418,1763 34493,1959 L 34618,2256 34618,5385 C 34618,7216 34593,8713 34563,8985 34412,10345 33770,11052 33226,10443 32840,10000 32835,10000 32820,5845 32805,2256 32805,2158 32905,1911 32970,1751 33076,1651 33182,1651 33277,1651 33372,1589 33387,1527 33407,1440 33061,1404 32388,1404 31730,1404 31353,1454 31353,1527 Z"/>
       </g>
      </g>
      <g class="com.sun.star.drawing.ClosedBezierShape">
       <g id="id15">
        <rect class="BoundingBox" stroke="none" fill="none" x="53229" y="1403" width="2980" height="9897"/>
        <path fill="rgb(0,0,0)" stroke="none" d="M 54656,1502 C 54656,1552 54731,1651 54821,1712 54942,1813 54992,1922 55013,2208 55058,2727 55068,4990 55023,4990 55002,4990 54923,4841 54846,4656 54651,4199 54209,4112 53917,4482 53460,5052 53229,6226 53229,7959 53234,10000 53631,11299 54254,11299 54531,11299 54727,11114 54877,10693 55013,10320 55058,10371 55058,10864 55058,11150 55083,11299 55129,11299 55229,11299 56178,10816 56204,10741 56219,10715 56183,10643 56133,10606 55852,10359 55862,10505 55862,5769 L 55862,1404 55259,1404 C 54927,1404 54656,1454 54656,1502 Z M 54711,5052 C 55002,5436 55058,5845 55058,7749 55058,9653 55013,9975 54696,10382 54480,10654 54325,10457 54194,9728 54053,8935 54038,6437 54173,5671 54309,4867 54446,4718 54711,5052 Z"/>
       </g>
      </g>
      <g class="com.sun.star.drawing.ClosedBezierShape">
       <g id="id16">
        <rect class="BoundingBox" stroke="none" fill="none" x="59606" y="1403" width="2936" height="9897"/>
        <path fill="rgb(0,0,0)" stroke="none" d="M 61034,1516 C 61034,1578 61099,1651 61180,1687 61365,1788 61375,1897 61405,3532 61430,4867 61401,5153 61280,4794 61088,4224 60611,4076 60286,4496 59838,5052 59607,6252 59607,7959 59607,8786 59632,9145 59717,9628 59934,10780 60215,11299 60632,11299 60918,11299 61038,11175 61250,10704 61386,10382 61411,10432 61390,10965 61386,11074 61411,11212 61455,11248 61516,11310 62174,11052 62455,10853 62561,10780 62571,10556 62471,10556 62430,10556 62359,10469 62320,10359 62249,10197 62240,9602 62240,5781 L 62240,1404 61636,1404 C 61305,1404 61034,1454 61034,1516 Z M 61084,5052 C 61365,5410 61415,5845 61405,7811 61390,9765 61361,10023 61079,10382 60857,10654 60707,10457 60567,9714 60476,9221 60461,8910 60461,7586 60466,6425 60486,5929 60546,5584 60677,4878 60828,4732 61084,5052 Z"/>
       </g>
      </g>
      <g class="com.sun.star.drawing.ClosedBezierShape">
       <g id="id17">
        <rect class="BoundingBox" stroke="none" fill="none" x="64297" y="1403" width="4115" height="10020"/>
        <path fill="rgb(0,0,0)" stroke="none" d="M 64298,1527 C 64298,1589 64358,1651 64429,1651 64508,1651 64625,1813 64729,2071 L 64900,2492 64900,6154 C 64900,10469 64890,10592 64529,10828 64404,10914 64298,11027 64298,11074 64298,11125 64614,11175 65002,11175 65438,11175 65704,11125 65704,11052 65704,10976 65654,10926 65594,10926 65393,10926 65162,10483 65127,10037 65112,9813 65102,8195 65112,6451 L 65127,3282 66473,7354 C 67211,9591 67840,11422 67865,11422 67894,11422 67915,9703 67915,6933 67915,1936 67919,1911 68231,1726 68578,1516 68422,1404 67764,1404 67362,1404 67111,1454 67111,1527 67111,1589 67176,1651 67256,1651 67467,1651 67619,2009 67669,2640 67719,3322 67729,7340 67679,7340 67654,7328 67211,5991 66684,4373 L 65729,1404 65016,1404 C 64569,1404 64298,1454 64298,1527 Z"/>
       </g>
      </g>
      <g class="com.sun.star.drawing.ClosedBezierShape">
       <g id="id18">
        <rect class="BoundingBox" stroke="none" fill="none" x="92722" y="1403" width="1460" height="9774"/>
        <path fill="rgb(0,0,0)" stroke="none" d="M 92722,1527 C 92722,1589 92762,1651 92812,1651 93018,1651 93024,1774 93024,6226 93024,10222 93018,10530 92933,10715 92883,10842 92812,10926 92783,10926 92747,10926 92722,10976 92722,11052 92722,11125 92999,11175 93451,11175 93853,11175 94180,11136 94180,11074 94180,11027 94110,10889 94029,10780 L 93878,10570 93878,5980 93878,1404 93301,1404 C 92949,1404 92722,1454 92722,1527 Z"/>
       </g>
      </g>
      <g class="com.sun.star.drawing.ClosedBezierShape">
       <g id="id19">
        <rect class="BoundingBox" stroke="none" fill="none" x="95936" y="1414" width="3317" height="9763"/>
        <path fill="rgb(0,0,0)" stroke="none" d="M 95936,1516 C 95936,1589 96011,1651 96103,1651 96213,1651 96308,1751 96368,1911 96459,2158 96464,2430 96478,6154 96489,10668 96489,10668 96147,10853 96032,10929 95936,11015 95936,11077 95936,11125 96388,11175 96941,11175 97886,11175 98201,11063 97749,10878 97428,10755 97393,10533 97393,8492 L 97393,6723 97659,6723 C 98212,6723 98684,6389 98941,5809 99247,5127 99343,3815 99157,2912 99036,2332 98930,2096 98624,1751 98388,1479 98297,1465 97157,1429 96308,1393 95936,1429 95936,1516 Z M 97891,2122 C 98151,2444 98253,2876 98282,3779 98303,4410 98287,4696 98207,5139 98086,5820 97955,6055 97634,6168 L 97393,6252 97393,4076 97393,1900 97559,1900 C 97645,1900 97795,1998 97891,2122 Z"/>
       </g>
      </g>
      <g class="com.sun.star.drawing.ClosedBezierShape">
       <g id="id20">
        <rect class="BoundingBox" stroke="none" fill="none" x="110124" y="1403" width="2938" height="9931"/>
        <path fill="rgb(0,0,0)" stroke="none" d="M 111506,1527 C 111506,1589 111551,1651 111606,1651 111662,1651 111751,1763 111807,1897 111897,2122 111908,2307 111908,3580 L 111908,5004 111722,4656 C 111561,4359 111495,4311 111199,4311 110903,4311 110832,4359 110641,4681 110501,4942 110376,5298 110274,5795 110134,6473 110124,6611 110124,7884 110124,9145 110134,9308 110260,9899 110586,11422 111264,11792 111716,10715 L 111908,10258 111908,10780 C 111908,11114 111928,11299 111972,11299 112033,11299 112737,10990 112953,10864 113089,10780 113099,10556 112968,10556 112912,10556 112832,10432 112791,10284 112722,10048 112712,9392 112712,5708 L 112712,1404 112109,1404 C 111741,1404 111506,1454 111506,1527 Z M 111747,5425 L 111908,5856 111908,7724 111908,9591 111712,10073 C 111485,10631 111345,10679 111184,10247 111018,9813 110953,9047 110953,7575 110953,6117 111018,5447 111199,5102 111365,4780 111536,4878 111747,5425 Z"/>
       </g>
      </g>
      <g class="com.sun.star.drawing.ClosedBezierShape">
       <g id="id21">
        <rect class="BoundingBox" stroke="none" fill="none" x="17511" y="8030" width="11208" height="5853"/>
        <path fill="rgb(0,0,0)" stroke="none" d="M 25445,8837 C 19707,12141 17776,13252 17652,13327 L 17511,13411 17630,13653 C 17723,13847 17767,13896 17837,13878 17939,13856 28673,9305 28717,9265 28739,9243 27663,8471 27037,8061 26922,7986 26918,7990 25445,8837 Z"/>
       </g>
      </g>
      <g class="com.sun.star.drawing.ClosedBezierShape">
       <g id="id22">
        <rect class="BoundingBox" stroke="none" fill="none" x="87706" y="1900" width="1805" height="9342"/>
        <path fill="rgb(0,0,0)" stroke="none" d="M 88651,2357 C 88460,3137 88208,3843 87947,4337 87650,4881 87631,5116 87877,5116 L 88052,5116 88052,7600 C 88052,9891 88062,10124 88153,10497 88435,11621 89173,11436 89439,10174 89530,9728 89455,9703 89289,10124 89139,10497 88983,10519 88907,10200 88877,10051 88856,8963 88856,7539 L 88856,5116 89183,5116 89510,5116 89510,4746 89510,4373 89183,4373 88856,4373 88856,3137 C 88856,2455 88837,1900 88812,1900 88787,1900 88710,2110 88651,2357 Z"/>
       </g>
      </g>
      <g class="com.sun.star.drawing.ClosedBezierShape">
       <g id="id23">
        <rect class="BoundingBox" stroke="none" fill="none" x="35772" y="4277" width="2966" height="6902"/>
        <path fill="rgb(0,0,0)" stroke="none" d="M 37305,4448 C 37225,4561 37094,4796 37019,4967 L 36878,5290 36878,4833 36878,4376 36325,4376 C 35773,4376 35647,4485 35894,4757 36049,4945 36074,5315 36074,7850 36074,10286 36054,10659 35894,10830 35657,11102 35783,11178 36451,11178 36823,11178 37129,11141 37129,11102 37129,11054 37074,10892 37004,10732 36878,10449 36878,10435 36878,8234 36878,6206 36888,5996 36978,5699 37129,5228 37350,5079 37486,5351 37586,5550 37596,5710 37621,7306 37632,8259 37627,9408 37607,9866 37576,10583 37556,10721 37450,10830 37386,10906 37330,11018 37330,11080 37330,11127 37646,11178 38034,11178 38421,11178 38736,11141 38736,11080 38736,11029 38671,10906 38592,10782 L 38446,10583 38425,8060 C 38411,5402 38385,5116 38139,4572 37988,4238 37511,4176 37305,4448 Z"/>
       </g>
      </g>
      <g class="com.sun.star.drawing.ClosedBezierShape">
       <g id="id24">
        <rect class="BoundingBox" stroke="none" fill="none" x="43859" y="4263" width="2277" height="7027"/>
        <path fill="rgb(0,0,0)" stroke="none" d="M 44632,4424 C 44360,4721 44130,5338 43984,6117 43858,6810 43848,6984 43868,8071 43889,9518 44024,10286 44356,10867 44537,11175 44627,11237 44933,11276 45230,11313 45341,11276 45501,11066 45712,10805 45924,10272 46043,9681 46155,9173 46054,9134 45899,9619 45753,10101 45486,10373 45270,10247 44993,10101 44722,9148 44643,8046 L 44607,7589 45370,7589 46134,7589 46104,6947 C 46059,6005 45847,5040 45607,4645 45366,4250 44883,4138 44632,4424 Z M 45210,4855 C 45330,5153 45416,5856 45416,6563 L 45416,7096 45014,7096 44612,7096 44612,6625 C 44612,5943 44707,5251 44838,4917 44984,4558 45084,4547 45210,4855 Z"/>
       </g>
      </g>
      <g class="com.sun.star.drawing.ClosedBezierShape">
       <g id="id25">
        <rect class="BoundingBox" stroke="none" fill="none" x="46519" y="4249" width="2321" height="6928"/>
        <path fill="rgb(0,0,0)" stroke="none" d="M 48147,4485 C 48057,4620 47906,4993 47805,5312 L 47625,5896 47625,5127 47625,4373 47071,4373 C 46705,4373 46519,4424 46519,4510 46519,4583 46565,4670 46625,4707 46790,4819 46821,5251 46821,7564 46821,10236 46796,10657 46640,10830 46575,10903 46519,11015 46519,11077 46519,11128 46846,11175 47248,11175 47650,11175 47976,11139 47976,11077 47976,11029 47901,10903 47811,10805 L 47650,10620 47640,8887 C 47625,6871 47705,6055 47936,5733 48061,5573 48082,5573 48223,5834 48488,6316 48821,6106 48836,5450 48856,4609 48750,4250 48484,4250 48383,4250 48232,4362 48147,4485 Z"/>
       </g>
      </g>
      <g class="com.sun.star.drawing.ClosedBezierShape">
       <g id="id26">
        <rect class="BoundingBox" stroke="none" fill="none" x="49207" y="4252" width="1878" height="7059"/>
        <path fill="rgb(0,0,0)" stroke="none" d="M 49605,4483 C 49178,5128 49077,6549 49393,7525 49449,7713 49670,8170 49876,8554 50374,9457 50439,9628 50439,10049 50439,11285 49710,10904 49434,9519 49263,8638 49218,8787 49258,10088 49278,10719 49303,11249 49308,11274 49318,11299 49368,11249 49428,11162 49509,11027 49574,11027 49761,11151 50434,11596 50876,11100 51042,9729 51172,8664 51011,7960 50363,6771 49755,5658 49720,5534 49866,5016 50047,4371 50524,4929 50761,6067 50907,6785 50957,6575 50916,5386 50896,4791 50871,4287 50861,4261 50851,4236 50795,4309 50740,4435 50645,4657 50630,4657 50459,4458 50218,4175 49801,4186 49605,4483 Z"/>
       </g>
      </g>
      <g class="com.sun.star.drawing.ClosedBezierShape">
       <g id="id27">
        <rect class="BoundingBox" stroke="none" fill="none" x="56613" y="4283" width="2601" height="6968"/>
        <path fill="rgb(0,0,0)" stroke="none" d="M 57418,4360 C 57156,4570 56875,4991 56795,5288 56679,5723 56644,6267 56710,6564 56825,7108 57207,7217 57387,6774 57489,6525 57493,5933 57393,5734 57287,5512 57297,5030 57412,4868 57564,4671 57795,4719 57925,4980 58020,5176 58045,5350 58061,6056 L 58076,6909 57618,7453 C 56910,8308 56614,9048 56614,9976 56614,10509 56764,10991 56991,11176 57207,11350 57498,11140 57835,10582 L 58051,10212 58106,10571 C 58181,11042 58458,11336 58709,11227 58920,11126 59262,10422 59206,10200 59176,10088 59151,10088 59095,10200 59060,10273 58995,10310 58955,10273 58895,10212 58880,9766 58864,7848 58849,5709 58839,5473 58745,5165 58533,4472 58397,4312 57955,4287 57729,4273 57489,4298 57418,4360 Z M 58071,8580 C 58071,9679 58071,9693 57920,9878 57720,10136 57589,10114 57498,9791 57393,9421 57397,8961 57518,8518 57614,8159 57951,7467 58031,7467 58051,7467 58071,7960 58071,8580 Z"/>
       </g>
      </g>
      <g class="com.sun.star.drawing.ClosedBezierShape">
       <g id="id28">
        <rect class="BoundingBox" stroke="none" fill="none" x="68822" y="4252" width="2541" height="7075"/>
        <path fill="rgb(0,0,0)" stroke="none" d="M 69536,4510 C 69104,5028 68863,6080 68828,7541 68803,8701 68858,9248 69084,10089 69310,10931 69626,11326 70064,11326 70747,11326 71128,10558 71310,8802 71501,6957 71149,4981 70531,4437 70214,4162 69793,4201 69536,4510 Z M 70249,4818 C 70290,4869 70365,5079 70416,5289 70536,5844 70531,9691 70405,10286 70234,11090 69883,11065 69743,10249 69657,9753 69642,6304 69722,5623 69807,4869 69999,4583 70249,4818 Z"/>
       </g>
      </g>
      <g class="com.sun.star.drawing.ClosedBezierShape">
       <g id="id29">
        <rect class="BoundingBox" stroke="none" fill="none" x="71830" y="4255" width="2325" height="6922"/>
        <path fill="rgb(0,0,0)" stroke="none" d="M 73458,4485 C 73368,4620 73217,4990 73116,5312 L 72936,5896 72936,5127 72936,4373 72382,4373 C 72016,4373 71830,4424 71830,4508 71830,4583 71876,4670 71936,4707 72101,4819 72132,5251 72132,7564 72132,10236 72107,10657 71951,10831 71886,10903 71830,11016 71830,11077 71830,11128 72157,11175 72559,11175 72961,11175 73287,11139 73287,11077 73287,11027 73212,10903 73122,10805 L 72961,10620 72951,8887 C 72936,6871 73016,6056 73247,5733 73372,5573 73393,5573 73534,5831 73799,6316 74132,6106 74151,5450 74161,4954 74141,4696 74055,4471 73951,4174 73659,4188 73458,4485 Z"/>
       </g>
      </g>
      <g class="com.sun.star.drawing.ClosedBezierShape">
       <g id="id30">
        <rect class="BoundingBox" stroke="none" fill="none" x="74416" y="4260" width="2530" height="7041"/>
        <path fill="rgb(0,0,0)" stroke="none" d="M 75195,4410 C 74975,4584 74693,5288 74537,6056 74437,6563 74416,6846 74416,7836 74416,8862 74431,9084 74552,9631 74808,10828 75125,11299 75687,11299 75954,11299 76085,11237 76256,11016 76718,10410 76989,8986 76939,7477 76868,5461 76386,4236 75677,4261 75506,4273 75291,4334 75195,4410 Z M 75914,4954 C 76064,5374 76114,6288 76089,8220 76064,9653 76044,10135 75979,10371 75864,10792 75683,10965 75527,10780 75310,10545 75246,9889 75246,7923 75246,6017 75291,5349 75427,4979 75537,4682 75804,4671 75914,4954 Z"/>
       </g>
      </g>
      <g class="com.sun.star.drawing.ClosedBezierShape">
       <g id="id31">
        <rect class="BoundingBox" stroke="none" fill="none" x="77400" y="4258" width="2346" height="6919"/>
        <path fill="rgb(0,0,0)" stroke="none" d="M 79069,4458 C 78979,4570 78817,4940 78717,5263 L 78536,5868 78521,5125 78506,4371 77958,4371 C 77410,4371 77265,4494 77527,4730 77592,4792 77656,4940 77677,5052 77692,5164 77707,6426 77707,7848 77707,10273 77702,10444 77606,10680 77552,10817 77486,10926 77456,10926 77431,10926 77406,10977 77406,11050 77406,11126 77682,11176 78134,11176 78808,11176 79039,11064 78737,10879 78531,10755 78496,10422 78521,8591 78536,7217 78561,6796 78646,6325 78777,5608 78954,5436 79134,5843 79269,6165 79571,6191 79671,5893 79782,5585 79762,4632 79646,4421 79516,4186 79279,4211 79069,4458 Z"/>
       </g>
      </g>
      <g class="com.sun.star.drawing.ClosedBezierShape">
       <g id="id32">
        <rect class="BoundingBox" stroke="none" fill="none" x="81791" y="4255" width="2246" height="7060"/>
        <path fill="rgb(0,0,0)" stroke="none" d="M 82552,4486 C 82287,4794 82035,5425 81904,6106 81754,6908 81754,8888 81904,9692 82116,10805 82437,11313 82929,11313 83287,11324 83518,11066 83758,10410 84100,9482 84135,8789 83799,9667 83477,10497 83191,10508 82879,9704 82698,9235 82577,8518 82577,7912 L 82577,7589 83306,7589 84035,7589 84035,7180 C 84035,6549 83894,5537 83748,5116 83467,4286 82965,4014 82552,4486 Z M 83090,4758 C 83231,4943 83331,5621 83331,6415 L 83331,7093 82929,7093 82527,7093 82527,6712 C 82527,6081 82633,5265 82759,4929 82890,4584 82940,4558 83090,4758 Z"/>
       </g>
      </g>
      <g class="com.sun.star.drawing.ClosedBezierShape">
       <g id="id33">
        <rect class="BoundingBox" stroke="none" fill="none" x="84428" y="4258" width="2978" height="6920"/>
        <path fill="rgb(0,0,0)" stroke="none" d="M 85968,4447 C 85888,4548 85757,4781 85682,4969 L 85541,5288 85541,4831 85541,4374 84989,4374 C 84576,4374 84436,4411 84436,4534 84436,4621 84486,4744 84551,4806 84632,4893 84672,5078 84697,5487 84743,6217 84747,8964 84703,9929 84678,10582 84657,10720 84551,10818 84280,11064 84451,11177 85114,11177 85486,11177 85793,11129 85793,11064 85793,11003 85737,10868 85667,10756 L 85541,10560 85541,8283 C 85541,6205 85551,5995 85642,5698 85783,5252 86003,5092 86139,5314 86240,5499 86245,5600 86245,8022 L 86245,10546 86120,10781 C 86049,10919 85993,11064 85993,11104 85993,11140 86310,11177 86697,11177 87351,11177 87572,11064 87274,10879 87114,10781 87109,10694 87084,7899 87064,5288 87028,4930 86732,4498 86536,4201 86180,4175 85968,4447 Z"/>
       </g>
      </g>
      <g class="com.sun.star.drawing.ClosedBezierShape">
       <g id="id34">
        <rect class="BoundingBox" stroke="none" fill="none" x="89862" y="4280" width="2593" height="6983"/>
        <path fill="rgb(0,0,0)" stroke="none" d="M 90578,4421 C 90176,4743 89911,5425 89911,6142 89911,6908 90322,7342 90578,6846 90744,6524 90749,6215 90603,5635 L 90498,5200 90609,4979 C 90755,4682 91021,4682 91161,4954 91242,5127 91277,5363 91302,5994 L 91332,6810 90850,7427 C 90588,7774 90292,8195 90197,8380 89850,9036 89759,10113 89990,10791 90222,11473 90628,11386 91081,10558 L 91286,10186 91342,10533 C 91442,11114 91669,11360 91970,11226 92156,11125 92498,10385 92448,10186 92422,10087 92392,10087 92342,10200 92307,10272 92242,10309 92201,10272 92146,10211 92126,9740 92111,7872 92090,5324 92080,5214 91784,4656 91624,4348 91553,4311 91196,4286 90961,4261 90704,4323 90578,4421 Z M 91317,8503 C 91317,9482 91307,9569 91186,9801 90834,10483 90518,9630 90740,8590 90819,8206 91157,7477 91257,7466 91302,7466 91317,7749 91317,8503 Z"/>
       </g>
      </g>
      <g class="com.sun.star.drawing.ClosedBezierShape">
       <g id="id35">
        <rect class="BoundingBox" stroke="none" fill="none" x="99695" y="4258" width="2319" height="6919"/>
        <path fill="rgb(0,0,0)" stroke="none" d="M 101331,4486 C 101240,4620 101090,4990 100989,5313 L 100808,5893 100808,5128 100808,4373 100255,4373 C 99888,4373 99703,4421 99703,4508 99703,4584 99748,4671 99798,4707 99959,4805 100004,5425 100004,7528 100004,10149 99974,10668 99823,10817 99542,11078 99717,11176 100431,11176 100833,11176 101160,11139 101160,11078 101160,11027 101084,10904 100994,10806 L 100833,10621 100823,8888 C 100808,6897 100888,6056 101115,5745 101235,5585 101260,5585 101401,5831 101587,6165 101819,6179 101929,5882 102044,5560 102039,4718 101923,4460 101798,4174 101521,4200 101331,4486 Z"/>
       </g>
      </g>
      <g class="com.sun.star.drawing.ClosedBezierShape">
       <g id="id36">
        <rect class="BoundingBox" stroke="none" fill="none" x="107099" y="4252" width="2625" height="7014"/>
        <path fill="rgb(0,0,0)" stroke="none" d="M 107789,4497 C 107236,4954 107005,6118 107317,6810 107483,7180 107708,7180 107864,6785 108020,6415 108020,6328 107879,5708 L 107764,5215 107885,4979 C 108040,4671 108292,4682 108432,4993 108523,5204 108542,5389 108542,6081 L 108542,6908 108060,7514 C 107492,8221 107221,8815 107136,9533 107081,9976 107085,10099 107166,10509 107352,11448 107764,11487 108286,10621 L 108542,10200 108613,10621 C 108704,11151 108969,11400 109246,11190 109447,11041 109763,10349 109719,10164 109698,10088 109663,10099 109633,10175 109602,10248 109537,10309 109492,10309 109377,10309 109346,9754 109346,7466 109346,5809 109331,5498 109250,5164 109035,4301 108377,3990 107789,4497 Z M 108533,8605 C 108517,9681 108512,9754 108387,9928 108096,10335 107804,9617 107940,8826 108000,8456 108412,7466 108502,7466 108527,7466 108538,7974 108533,8605 Z"/>
       </g>
      </g>
      <g class="com.sun.star.drawing.ClosedBezierShape">
       <g id="id37">
        <rect class="BoundingBox" stroke="none" fill="none" x="113467" y="4246" width="2612" height="7015"/>
        <path fill="rgb(0,0,0)" stroke="none" d="M 114178,4482 C 113736,4852 113430,5842 113560,6462 113691,7056 113997,7267 114203,6908 114353,6647 114374,6302 114263,5795 114138,5225 114143,5051 114293,4892 114495,4656 114665,4718 114796,5051 114901,5298 114922,5461 114922,6128 L 114922,6908 114394,7575 C 113585,8601 113319,9529 113545,10544 113741,11433 114158,11472 114665,10631 L 114917,10211 114976,10581 C 115057,11052 115324,11346 115559,11237 115720,11161 116078,10519 116078,10298 116078,10233 116012,10222 115932,10258 115741,10359 115726,10211 115726,7662 115726,5780 115715,5534 115625,5164 115403,4297 114761,3989 114178,4482 Z M 114911,8601 C 114897,9678 114891,9751 114766,9925 114499,10284 114218,9728 114288,8985 114328,8638 114776,7463 114872,7463 114907,7463 114922,7872 114911,8601 Z"/>
       </g>
      </g>
      <g class="com.sun.star.drawing.ClosedBezierShape">
       <g id="id38">
        <rect class="BoundingBox" stroke="none" fill="none" x="39036" y="4389" width="1460" height="6787"/>
        <path fill="rgb(0,0,0)" stroke="none" d="M 39037,4496 C 39037,4569 39093,4681 39158,4743 39222,4804 39293,4916 39314,4989 39328,5051 39343,6313 39343,7785 39343,10137 39333,10482 39258,10692 39212,10816 39143,10928 39102,10928 39066,10928 39037,10976 39037,11051 39037,11124 39314,11175 39766,11175 40168,11175 40495,11138 40495,11077 40495,11026 40424,10891 40343,10779 L 40193,10569 40183,7502 40168,4434 39605,4398 C 39228,4372 39037,4409 39037,4496 Z"/>
       </g>
      </g>
      <g class="com.sun.star.drawing.ClosedBezierShape">
       <g id="id39">
        <rect class="BoundingBox" stroke="none" fill="none" x="40643" y="4373" width="2896" height="6989"/>
        <path fill="rgb(0,0,0)" stroke="none" d="M 40644,4547 C 40644,4634 40689,4743 40739,4782 40865,4855 40910,5077 41523,8517 41815,10138 42060,11360 42096,11360 42136,11360 42357,10236 42623,8702 43231,5189 43286,4931 43437,4757 43653,4522 43517,4373 43075,4373 42638,4373 42552,4485 42794,4768 42904,4917 42929,5015 42919,5363 42915,5696 42498,8503 42427,8677 42398,8753 41850,5436 41850,5164 41850,4967 41890,4819 41975,4721 42046,4645 42100,4533 42100,4471 42100,4424 41775,4373 41373,4373 40785,4373 40644,4410 40644,4547 Z"/>
       </g>
      </g>
      <g class="com.sun.star.drawing.ClosedBezierShape">
       <g id="id40">
        <rect class="BoundingBox" stroke="none" fill="none" x="51441" y="4389" width="1459" height="6787"/>
        <path fill="rgb(0,0,0)" stroke="none" d="M 51441,4485 C 51441,4558 51502,4681 51582,4768 L 51718,4928 51733,7701 C 51743,10149 51733,10496 51662,10693 51612,10830 51547,10928 51506,10928 51471,10928 51441,10979 51441,11051 51441,11124 51718,11175 52170,11175 52612,11175 52899,11124 52899,11051 52899,10990 52843,10903 52773,10852 52703,10816 52643,10768 52637,10754 52632,10754 52612,9319 52597,7589 L 52572,4434 52010,4398 C 51662,4373 51441,4409 51441,4485 Z"/>
       </g>
      </g>
      <g class="com.sun.star.drawing.ClosedBezierShape">
       <g id="id41">
        <rect class="BoundingBox" stroke="none" fill="none" x="79962" y="4373" width="1513" height="6804"/>
        <path fill="rgb(0,0,0)" stroke="none" d="M 79976,4522 C 79991,4609 80051,4707 80117,4743 80193,4782 80253,4942 80273,5116 80328,5598 80324,10138 80268,10483 80243,10657 80168,10830 80092,10878 79791,11066 80022,11175 80720,11175 81188,11175 81474,11128 81474,11052 81474,10979 81439,10929 81399,10929 81359,10929 81278,10816 81223,10682 81128,10446 81122,10272 81122,7404 L 81122,4373 80539,4373 C 80103,4373 79961,4410 79976,4522 Z"/>
       </g>
      </g>
      <g class="com.sun.star.drawing.ClosedBezierShape">
       <g id="id42">
        <rect class="BoundingBox" stroke="none" fill="none" x="102258" y="4373" width="1465" height="6804"/>
        <path fill="rgb(0,0,0)" stroke="none" d="M 102264,4485 C 102264,4558 102324,4681 102401,4768 102516,4906 102546,5040 102582,5610 102632,6389 102601,10261 102541,10595 102521,10707 102451,10842 102385,10878 102089,11066 102320,11175 102993,11175 103395,11175 103722,11139 103722,11077 103722,11027 103652,10892 103571,10780 L 103421,10570 103421,7466 103421,4373 102842,4373 C 102511,4373 102264,4424 102264,4485 Z"/>
       </g>
      </g>
      <g class="com.sun.star.drawing.ClosedBezierShape">
       <g id="id43">
        <rect class="BoundingBox" stroke="none" fill="none" x="103871" y="4373" width="2916" height="6996"/>
        <path fill="rgb(0,0,0)" stroke="none" d="M 103872,4558 C 103872,4656 103901,4743 103942,4743 104063,4743 104188,5312 104721,8332 105007,9928 105253,11276 105268,11324 105349,11523 105439,11114 105857,8702 106459,5203 106514,4931 106660,4768 106901,4496 106795,4373 106334,4373 106087,4373 105882,4410 105882,4460 105882,4522 105951,4656 106037,4782 106178,4979 106193,5040 106163,5425 106132,5783 105705,8554 105655,8677 105626,8753 105078,5436 105078,5164 105078,4967 105118,4819 105203,4721 105274,4645 105328,4533 105328,4471 105328,4424 105003,4373 104601,4373 103987,4373 103872,4398 103872,4558 Z"/>
       </g>
      </g>
      <g class="com.sun.star.drawing.ClosedBezierShape">
       <g id="id44">
        <rect class="BoundingBox" stroke="none" fill="none" x="1022" y="9175" width="11020" height="5177"/>
        <path fill="rgb(0,0,0)" stroke="none" d="M 1041,9375 C 1059,9494 1142,10055 1231,10624 L 1394,11660 4238,12397 C 5800,12802 8132,13407 9416,13737 10704,14073 11780,14346 11815,14350 11868,14355 12075,13861 12035,13830 12027,13826 11383,13552 10607,13221 9830,12891 7392,11854 5182,10915 2973,9975 1134,9195 1089,9181 1015,9164 1010,9181 1041,9375 Z"/>
       </g>
      </g>
      <g class="com.sun.star.drawing.ClosedBezierShape">
       <g id="id45">
        <rect class="BoundingBox" stroke="none" fill="none" x="17894" y="11787" width="11862" height="3015"/>
        <path fill="rgb(0,0,0)" stroke="none" d="M 27650,11955 C 27275,12052 25507,12484 23725,12921 21943,13358 19902,13856 19187,14032 L 17895,14354 17921,14571 C 17935,14690 17952,14791 17957,14800 17979,14818 29732,13680 29754,13653 29767,13644 29489,13221 29141,12714 28709,12092 28475,11792 28417,11787 28373,11783 28025,11858 27650,11955 Z"/>
       </g>
      </g>
      <g class="com.sun.star.drawing.ClosedBezierShape">
       <g id="id46">
        <rect class="BoundingBox" stroke="none" fill="none" x="31441" y="16023" width="954" height="3687"/>
        <path fill="rgb(0,0,0)" stroke="none" d="M 32081,16221 C 31666,16675 31445,17399 31441,18290 31441,18908 31547,19345 31746,19573 31913,19754 31984,19754 32147,19573 32430,19259 32478,18490 32244,18092 32147,17930 32090,17900 31931,17950 L 31737,18006 31763,17627 C 31790,17160 31931,16733 32152,16430 32244,16305 32324,16154 32324,16107 32324,15973 32284,15993 32081,16221 Z"/>
       </g>
      </g>
      <g class="com.sun.star.drawing.ClosedBezierShape">
       <g id="id47">
        <rect class="BoundingBox" stroke="none" fill="none" x="32675" y="16010" width="964" height="3673"/>
        <path fill="rgb(0,0,0)" stroke="none" d="M 33268,16295 C 32879,16771 32676,17473 32676,18329 32676,19507 33197,20114 33532,19326 33634,19070 33652,18965 33629,18680 33616,18472 33559,18252 33484,18110 33387,17929 33334,17901 33175,17948 32994,17996 32985,17987 32985,17759 32985,17246 33241,16495 33475,16342 33554,16286 33599,16011 33528,16011 33506,16011 33391,16133 33268,16295 Z"/>
       </g>
      </g>
      <g class="com.sun.star.drawing.ClosedBezierShape">
       <g id="id48">
        <rect class="BoundingBox" stroke="none" fill="none" x="34109" y="16010" width="3816" height="7857"/>
        <path fill="rgb(0,0,0)" stroke="none" d="M 35362,16228 C 34832,16618 34484,17292 34246,18375 34118,18954 34109,19079 34109,20000 34109,20902 34122,21053 34237,21585 34475,22696 35018,23561 35631,23798 36081,23979 36866,23779 37347,23361 L 37527,23208 37527,22175 C 37527,21262 37536,21120 37616,20950 37664,20844 37752,20758 37814,20758 37876,20758 37924,20711 37924,20663 37924,20607 37616,20569 37086,20569 36557,20569 36248,20607 36248,20663 36248,20711 36297,20758 36359,20758 36420,20758 36522,20864 36579,20997 36681,21206 36689,21290 36689,22222 L 36689,23208 36535,23322 C 36314,23484 35895,23456 35679,23266 35441,23066 35221,22498 35119,21822 35000,21044 35000,18937 35119,18196 35273,17227 35476,16760 35842,16523 36407,16163 37020,16837 37329,18177 37391,18452 37461,18650 37488,18622 37510,18584 37527,17985 37527,17283 37527,16286 37514,16011 37470,16011 37435,16011 37386,16116 37360,16247 37294,16551 37130,16562 36813,16286 36641,16133 36456,16067 36116,16039 35715,16011 35613,16030 35362,16228 Z"/>
       </g>
      </g>
      <g class="com.sun.star.drawing.ClosedBezierShape">
       <g id="id49">
        <rect class="BoundingBox" stroke="none" fill="none" x="38094" y="16010" width="7460" height="7695"/>
        <path fill="rgb(0,0,0)" stroke="none" d="M 43066,19115 C 42267,22943 42223,23133 42016,23370 41742,23684 41632,23495 41037,21690 L 40525,20142 40684,20028 C 40904,19856 41090,19552 41173,19210 41434,18129 41248,16952 40746,16448 40560,16267 40455,16247 39326,16219 38474,16200 38100,16219 38100,16286 38100,16342 38157,16390 38227,16390 38298,16390 38399,16476 38457,16570 L 38563,16751 38563,19934 C 38563,23456 38567,23381 38272,23475 37875,23617 38157,23704 38982,23704 39467,23704 39864,23665 39864,23628 39864,23581 39780,23514 39678,23456 39409,23333 39378,23144 39378,21585 L 39378,20284 39502,20284 C 39617,20284 39687,20465 40190,21994 L 40750,23704 41875,23704 C 42492,23704 42995,23665 42995,23617 42995,23570 42907,23484 42796,23428 42510,23275 42483,22952 42686,21966 L 42779,21510 43396,21538 44018,21566 44146,22211 C 44217,22573 44274,22971 44274,23096 44274,23342 44159,23514 43992,23514 43930,23514 43877,23551 43877,23609 43877,23665 44186,23704 44715,23704 45178,23704 45553,23676 45553,23628 45549,23589 45487,23475 45407,23370 45218,23114 45169,22896 44419,19221 44062,17453 43754,16011 43740,16011 43727,16011 43423,17406 43066,19115 Z M 40053,16713 C 40358,16988 40499,17692 40437,18631 40384,19449 40194,19753 39696,19856 L 39378,19934 39378,18252 39378,16581 39643,16581 C 39789,16581 39974,16637 40053,16713 Z M 43696,20000 L 43917,21092 43657,21120 C 43511,21139 43273,21139 43127,21120 L 42867,21092 43066,20142 C 43176,19619 43295,19040 43335,18859 43396,18556 43405,18547 43440,18717 43462,18823 43577,19402 43696,20000 Z"/>
       </g>
      </g>
      <g class="com.sun.star.drawing.ClosedBezierShape">
       <g id="id50">
        <rect class="BoundingBox" stroke="none" fill="none" x="55827" y="16085" width="3713" height="7619"/>
        <path fill="rgb(0,0,0)" stroke="none" d="M 57022,19211 C 56656,20977 56308,22592 56255,22801 56198,23020 56083,23266 55990,23371 55902,23474 55827,23589 55827,23627 55827,23675 56087,23703 56400,23703 56718,23703 56974,23664 56974,23617 56974,23569 56886,23485 56775,23427 56489,23276 56467,22953 56665,21957 L 56753,21509 57375,21537 57997,21567 58125,22213 C 58196,22572 58253,22971 58253,23095 58253,23343 58138,23513 57971,23513 57909,23513 57856,23552 57856,23608 57856,23664 58165,23703 58694,23703 59528,23703 59700,23627 59404,23408 59237,23285 59153,22923 58390,19192 58046,17530 57750,16124 57733,16087 57710,16038 57393,17444 57022,19211 Z M 57631,21119 C 57490,21138 57252,21138 57111,21119 L 56846,21091 56991,20378 C 57075,19989 57194,19409 57256,19097 L 57375,18527 57635,19810 57896,21091 57631,21119 Z"/>
       </g>
      </g>
      <g class="com.sun.star.drawing.ClosedBezierShape">
       <g id="id51">
        <rect class="BoundingBox" stroke="none" fill="none" x="65793" y="16010" width="2427" height="7884"/>
        <path fill="rgb(0,0,0)" stroke="none" d="M 66433,16163 C 66058,16456 65797,17283 65793,18177 65793,19163 66040,19772 66808,20663 67355,21301 67487,21518 67584,21919 67787,22763 67386,23637 66878,23475 66472,23342 66031,22412 65921,21462 65894,21234 65855,21044 65833,21044 65811,21044 65793,21680 65793,22468 65793,23353 65811,23893 65837,23893 65864,23893 65881,23854 65881,23798 65881,23751 65930,23637 65992,23551 66102,23400 66124,23400 66503,23656 66830,23865 66944,23902 67152,23846 67787,23684 68219,22754 68219,21566 68219,20541 67946,19886 67147,18993 66561,18327 66380,18015 66340,17578 66292,16988 66561,16390 66874,16390 67275,16390 67703,17102 67840,17985 67884,18261 67937,18480 67959,18480 67981,18480 67999,17929 67999,17244 67999,16562 67981,16011 67963,16011 67941,16011 67902,16125 67871,16258 67813,16542 67738,16542 67328,16211 67037,15983 66689,15963 66433,16163 Z"/>
       </g>
      </g>
      <g class="com.sun.star.drawing.ClosedBezierShape">
       <g id="id52">
        <rect class="BoundingBox" stroke="none" fill="none" x="68681" y="16010" width="3287" height="7818"/>
        <path fill="rgb(0,0,0)" stroke="none" d="M 70159,16077 C 69912,16181 69484,16695 69254,17160 69082,17503 68954,17890 68844,18385 68690,19059 68681,19145 68681,20048 68681,20911 68694,21053 68818,21624 69153,23133 69704,23837 70556,23826 71054,23826 71359,23617 71703,23030 71897,22707 71923,22612 71923,22306 L 71923,21966 71689,22440 C 71372,23086 71209,23247 70829,23305 70070,23409 69656,22412 69599,20312 69546,18441 69797,17208 70335,16685 70887,16144 71579,16827 71813,18129 71857,18375 71910,18575 71928,18575 71950,18575 71967,17996 71967,17292 71967,16590 71950,16011 71932,16011 71910,16011 71870,16116 71844,16247 71778,16551 71654,16551 71204,16247 70873,16019 70472,15955 70159,16077 Z"/>
       </g>
      </g>
      <g class="com.sun.star.drawing.ClosedBezierShape">
       <g id="id53">
        <rect class="BoundingBox" stroke="none" fill="none" x="72319" y="16055" width="3706" height="7651"/>
        <path fill="rgb(0,0,0)" stroke="none" d="M 74114,16306 C 73845,17663 72822,22507 72734,22830 72667,23067 72562,23304 72469,23390 72385,23476 72319,23579 72319,23627 72319,23665 72579,23704 72892,23704 73210,23704 73466,23665 73466,23627 73466,23579 73373,23484 73259,23409 73060,23286 73047,23248 73034,22933 73025,22724 73060,22384 73131,22051 L 73241,21519 73858,21519 74472,21519 74608,22223 C 74683,22610 74745,23019 74745,23125 74745,23342 74626,23512 74463,23512 74401,23512 74348,23551 74348,23609 74348,23665 74657,23704 75186,23704 75649,23704 76024,23665 76024,23627 76024,23579 75958,23476 75874,23400 75698,23209 75649,23011 74833,19002 74516,17434 74238,16115 74216,16067 74194,16020 74150,16125 74114,16306 Z M 74136,19876 L 74379,21092 73872,21120 C 73594,21129 73360,21129 73347,21112 73325,21054 73828,18670 73863,18670 73880,18670 74004,19211 74136,19876 Z"/>
       </g>
      </g>
      <g class="com.sun.star.drawing.ClosedBezierShape">
       <g id="id54">
        <rect class="BoundingBox" stroke="none" fill="none" x="87312" y="16010" width="3751" height="7695"/>
        <path fill="rgb(0,0,0)" stroke="none" d="M 88504,19307 C 88129,21111 87767,22754 87706,22943 87639,23133 87525,23342 87450,23419 87375,23484 87313,23570 87313,23617 87313,23665 87582,23704 87908,23704 88486,23704 88680,23598 88332,23467 87997,23342 87953,22999 88155,21994 L 88253,21510 88874,21538 89496,21566 89646,22364 89801,23161 89699,23333 C 89642,23437 89541,23514 89470,23514 89399,23514 89342,23551 89342,23609 89342,23665 89660,23704 90202,23704 90736,23704 91062,23665 91062,23609 91062,23561 91014,23495 90952,23456 90890,23428 90793,23266 90731,23105 90674,22935 90312,21273 89933,19410 89549,17539 89227,16011 89214,16011 89201,16011 88879,17492 88504,19307 Z M 89144,19847 C 89280,20521 89382,21081 89373,21111 89364,21131 89126,21131 88848,21120 L 88341,21092 88605,19828 C 88751,19135 88874,18584 88883,18603 88888,18614 89007,19173 89144,19847 Z"/>
       </g>
      </g>
      <g class="com.sun.star.drawing.ClosedBezierShape">
       <g id="id55">
        <rect class="BoundingBox" stroke="none" fill="none" x="94015" y="16057" width="3697" height="7649"/>
        <path fill="rgb(0,0,0)" stroke="none" d="M 95788,16401 C 95356,18537 94513,22507 94421,22830 94355,23048 94236,23295 94161,23371 94081,23457 94015,23562 94015,23610 94015,23666 94253,23704 94588,23704 95149,23704 95325,23599 94999,23468 94906,23429 94805,23362 94778,23306 94690,23145 94712,22555 94831,22014 L 94937,21519 95550,21519 96163,21519 96304,22232 C 96379,22621 96441,23020 96441,23125 96441,23353 96317,23515 96159,23515 96097,23515 96044,23552 96044,23610 96044,23666 96353,23704 96882,23704 97694,23704 97861,23638 97592,23437 97416,23306 97336,22992 96595,19336 96238,17588 95929,16115 95907,16067 95885,16020 95837,16154 95788,16401 Z M 95837,19924 L 96079,21140 95550,21140 C 95259,21140 95030,21101 95038,21054 95153,20371 95546,18604 95568,18651 95585,18690 95704,19258 95837,19924 Z"/>
       </g>
      </g>
      <g class="com.sun.star.drawing.ClosedBezierShape">
       <g id="id56">
        <rect class="BoundingBox" stroke="none" fill="none" x="98015" y="16010" width="3324" height="7845"/>
        <path fill="rgb(0,0,0)" stroke="none" d="M 99397,16153 C 98061,16960 97558,20627 98498,22707 99000,23826 100033,24197 100703,23503 101012,23191 101250,22687 101250,22356 L 101250,22061 101047,22459 C 100747,23058 100456,23322 100081,23322 99397,23314 99089,22593 98952,20674 98859,19363 99009,17920 99309,17264 99530,16771 99702,16581 99993,16514 100487,16400 100981,17083 101149,18110 101285,18937 101338,18717 101338,17292 101338,16267 101325,16011 101277,16011 101246,16011 101206,16097 101193,16191 101153,16542 101030,16570 100677,16325 100262,16019 99737,15955 99397,16153 Z"/>
       </g>
      </g>
      <g class="com.sun.star.drawing.ClosedBezierShape">
       <g id="id57">
        <rect class="BoundingBox" stroke="none" fill="none" x="105662" y="16010" width="3306" height="7829"/>
        <path fill="rgb(0,0,0)" stroke="none" d="M 107095,16105 C 106804,16267 106421,16771 106187,17302 105631,18575 105507,20312 105860,21852 106156,23124 106747,23826 107532,23837 108017,23846 108291,23665 108657,23077 108895,22696 108922,22621 108922,22317 L 108922,21975 108661,22498 C 108357,23105 108101,23322 107713,23322 107409,23322 107153,23114 106972,22715 106544,21785 106447,19249 106787,17806 107254,15802 108529,16172 108851,18405 108864,18500 108895,18575 108922,18575 108948,18575 108966,18110 108966,17292 108966,16590 108948,16011 108930,16011 108908,16011 108869,16116 108842,16247 108776,16551 108635,16562 108278,16286 107982,16058 107360,15963 107095,16105 Z"/>
       </g>
      </g>
      <g class="com.sun.star.drawing.ClosedBezierShape">
       <g id="id58">
        <rect class="BoundingBox" stroke="none" fill="none" x="113602" y="16092" width="3680" height="7766"/>
        <path fill="rgb(0,0,0)" stroke="none" d="M 115181,16116 C 114749,16192 114418,16515 114127,17141 113245,19042 113518,22451 114639,23525 114930,23809 115433,23932 115786,23809 116412,23601 116866,22868 117144,21615 117272,21036 117281,20931 117281,19906 117281,18918 117268,18756 117162,18272 116968,17389 116588,16609 116200,16306 115971,16125 115561,16050 115181,16116 Z M 115786,16573 C 115997,16782 116165,17219 116271,17826 116381,18472 116408,20817 116315,21615 116165,22879 115905,23420 115446,23420 114886,23420 114595,22462 114537,20429 114458,17512 115009,15813 115786,16573 Z"/>
       </g>
      </g>
      <g class="com.sun.star.drawing.ClosedBezierShape">
       <g id="id59">
        <rect class="BoundingBox" stroke="none" fill="none" x="117731" y="16012" width="955" height="3615"/>
        <path fill="rgb(0,0,0)" stroke="none" d="M 117867,16289 C 117682,16687 117686,17227 117876,17570 118026,17845 118075,17865 118243,17723 118326,17656 118357,17664 118362,17751 118384,18310 118251,18853 118000,19215 117722,19613 117801,19794 118092,19423 118485,18920 118680,18263 118684,17438 118684,16810 118587,16364 118401,16155 118198,15927 118017,15974 117867,16289 Z"/>
       </g>
      </g>
      <g class="com.sun.star.drawing.ClosedBezierShape">
       <g id="id60">
        <rect class="BoundingBox" stroke="none" fill="none" x="118973" y="16001" width="969" height="3590"/>
        <path fill="rgb(0,0,0)" stroke="none" d="M 119102,16286 C 119009,16495 118974,16657 118974,16913 118974,17169 119009,17330 119102,17539 119243,17834 119301,17862 119482,17720 119636,17597 119667,17796 119574,18338 119504,18728 119332,19126 119124,19393 118983,19583 119098,19669 119261,19496 119786,18956 120069,17692 119883,16732 119742,15991 119345,15763 119102,16286 Z"/>
       </g>
      </g>
      <g class="com.sun.star.drawing.ClosedBezierShape">
       <g id="id61">
        <rect class="BoundingBox" stroke="none" fill="none" x="45727" y="16200" width="3600" height="7695"/>
        <path fill="rgb(0,0,0)" stroke="none" d="M 45729,16295 C 45729,16342 45769,16390 45817,16390 45861,16390 45972,16523 46060,16685 L 46214,16979 46214,19951 C 46214,22791 46210,22924 46126,23161 46073,23303 45967,23437 45883,23475 45557,23609 45756,23704 46347,23704 46973,23704 47114,23626 46779,23456 46660,23400 46563,23275 46505,23105 46417,22849 46413,22696 46400,20274 46391,18736 46400,17720 46426,17720 46448,17720 46991,19107 47630,20805 48270,22506 48808,23893 48826,23893 48843,23893 48861,22306 48870,20368 L 48883,16846 49006,16618 C 49073,16495 49170,16390 49214,16390 49258,16390 49311,16342 49324,16295 49342,16239 49148,16200 48777,16200 48420,16200 48199,16239 48199,16295 48199,16342 48248,16390 48305,16390 48455,16390 48631,16732 48662,17083 48676,17255 48684,18157 48676,19096 L 48662,20797 47815,18497 46964,16200 46347,16200 C 45963,16200 45729,16239 45729,16295 Z"/>
       </g>
      </g>
      <g class="com.sun.star.drawing.ClosedBezierShape">
       <g id="id62">
        <rect class="BoundingBox" stroke="none" fill="none" x="50886" y="16200" width="4811" height="7505"/>
        <path fill="rgb(0,0,0)" stroke="none" d="M 50888,16295 C 50888,16342 50954,16390 51033,16390 51113,16390 51223,16456 51276,16542 51373,16685 51373,16693 51373,19800 51373,22791 51369,22924 51285,23161 51232,23303 51126,23437 51042,23475 50720,23598 50910,23704 51483,23704 52052,23704 52246,23598 51933,23475 51849,23447 51739,23314 51686,23200 51594,22980 51594,22943 51602,20009 L 51616,17035 52277,20368 C 52643,22203 52956,23684 52974,23673 52996,23665 53300,22175 53649,20379 54002,18575 54310,17055 54333,17007 54363,16941 54372,17918 54363,20017 54350,23503 54359,23389 54024,23484 53927,23512 53843,23579 53843,23617 53843,23665 54262,23704 54769,23704 55356,23704 55695,23665 55695,23609 55695,23551 55647,23512 55585,23512 55519,23512 55413,23447 55343,23370 L 55210,23219 55210,19951 55210,16685 55307,16542 C 55360,16456 55470,16390 55550,16390 55629,16390 55695,16342 55695,16295 55695,16239 55426,16200 54976,16200 L 54253,16200 53794,18622 C 53543,19951 53323,21044 53309,21044 53296,21044 53067,19951 52806,18622 L 52330,16200 51607,16200 C 51157,16200 50888,16239 50888,16295 Z"/>
       </g>
      </g>
      <g class="com.sun.star.drawing.ClosedBezierShape">
       <g id="id63">
        <rect class="BoundingBox" stroke="none" fill="none" x="59702" y="16219" width="3757" height="7493"/>
        <path fill="rgb(0,0,0)" stroke="none" d="M 59708,16293 C 59708,16349 59779,16397 59862,16397 59959,16397 60052,16474 60105,16588 60189,16767 60193,16901 60193,19893 60193,23396 60193,23377 59880,23482 59483,23625 59765,23711 60612,23711 61186,23711 61516,23672 61516,23616 61516,23558 61463,23521 61402,23521 61278,23521 61115,23368 61066,23198 61049,23140 61031,22458 61031,21687 L 61031,20281 61150,20311 C 61252,20330 61362,20615 61825,22021 L 62377,23711 62919,23711 C 63250,23711 63457,23672 63457,23616 63457,23558 63440,23521 63417,23521 63316,23521 63073,22931 62646,21631 62385,20851 62178,20197 62178,20177 62178,20149 62266,20055 62377,19969 62738,19665 62959,18886 62919,18003 62888,17338 62725,16853 62412,16522 L 62156,16255 60934,16227 C 60083,16207 59708,16227 59708,16293 Z M 61737,16758 C 62032,17073 62182,18212 62028,18991 61931,19484 61777,19721 61490,19816 60987,19997 61031,20149 61031,18250 L 61031,16588 61309,16588 C 61481,16588 61640,16644 61737,16758 Z"/>
       </g>
      </g>
      <g class="com.sun.star.drawing.ClosedBezierShape">
       <g id="id64">
        <rect class="BoundingBox" stroke="none" fill="none" x="63543" y="16200" width="1811" height="7505"/>
        <path fill="rgb(0,0,0)" stroke="none" d="M 63544,16295 C 63544,16342 63615,16390 63698,16390 63795,16390 63888,16467 63941,16579 64025,16760 64029,16893 64029,19942 L 64029,23124 63915,23314 C 63848,23428 63738,23512 63672,23512 63601,23512 63544,23551 63544,23609 63544,23665 63875,23704 64448,23704 65022,23704 65353,23665 65353,23609 65353,23551 65296,23512 65225,23512 65154,23512 65053,23428 64996,23333 L 64890,23152 64876,20028 C 64863,16969 64868,16893 64956,16646 65026,16456 65088,16390 65203,16390 65287,16390 65353,16342 65353,16295 65353,16239 65022,16200 64448,16200 63875,16200 63544,16239 63544,16295 Z"/>
       </g>
      </g>
      <g class="com.sun.star.drawing.ClosedBezierShape">
       <g id="id65">
        <rect class="BoundingBox" stroke="none" fill="none" x="76200" y="16200" width="3215" height="7488"/>
        <path fill="rgb(0,0,0)" stroke="none" d="M 76200,16295 C 76200,16342 76271,16390 76354,16390 76451,16390 76544,16467 76597,16579 76681,16760 76685,16893 76685,19942 L 76685,23124 76571,23314 C 76504,23428 76394,23512 76328,23512 76257,23512 76200,23561 76200,23609 76200,23673 76725,23693 77757,23684 L 79310,23656 79363,22657 C 79425,21395 79429,21044 79380,21044 79363,21044 79301,21290 79248,21594 79125,22336 78939,22877 78736,23077 78525,23294 77942,23389 77731,23238 77603,23142 77567,23058 77545,22819 77532,22649 77523,21195 77532,19591 77545,16818 77550,16657 77629,16523 77678,16448 77792,16390 77885,16390 77978,16390 78053,16342 78053,16295 78053,16239 77713,16200 77126,16200 76540,16200 76200,16239 76200,16295 Z"/>
       </g>
      </g>
      <g class="com.sun.star.drawing.ClosedBezierShape">
       <g id="id66">
        <rect class="BoundingBox" stroke="none" fill="none" x="81183" y="16200" width="2602" height="7600"/>
        <path fill="rgb(0,0,0)" stroke="none" d="M 82418,16286 C 82418,16334 82480,16390 82551,16428 82731,16504 82771,16771 82771,17966 L 82771,18965 82612,18706 C 82502,18517 82387,18433 82224,18403 81602,18289 81183,19410 81183,21167 81183,22117 81262,22687 81474,23208 81655,23673 81862,23835 82184,23779 82387,23740 82445,23684 82595,23370 L 82771,22999 82771,23400 C 82771,23673 82789,23798 82833,23798 82886,23798 83353,23617 83689,23456 83808,23409 83817,23228 83702,23228 83653,23228 83583,23133 83548,23019 83486,22838 83477,22334 83477,19505 L 83477,16200 82948,16200 C 82656,16200 82418,16239 82418,16286 Z M 82630,19305 L 82771,19647 82771,21044 82771,22440 82626,22801 C 82511,23086 82449,23161 82330,23161 82039,23161 81933,22582 81933,20911 81933,19961 81946,19705 82026,19372 82162,18745 82387,18726 82630,19305 Z"/>
       </g>
      </g>
      <g class="com.sun.star.drawing.ClosedBezierShape">
       <g id="id67">
        <rect class="BoundingBox" stroke="none" fill="none" x="90664" y="16200" width="3706" height="7505"/>
        <path fill="rgb(0,0,0)" stroke="none" d="M 90664,16286 C 90664,16334 90721,16390 90792,16418 90968,16495 91061,16779 91634,19021 L 92128,20948 92111,22050 C 92098,23077 92089,23161 91992,23333 91930,23437 91820,23512 91718,23512 91626,23512 91546,23551 91546,23609 91546,23665 91899,23704 92512,23704 93112,23704 93491,23665 93509,23609 93527,23551 93469,23512 93363,23512 93253,23512 93147,23437 93072,23314 92958,23124 92958,23114 92958,21833 L 92958,20549 93452,18784 C 93941,17016 94166,16390 94299,16390 94338,16390 94369,16342 94369,16295 94369,16239 94162,16200 93840,16200 93518,16200 93311,16239 93311,16295 93311,16342 93368,16390 93438,16390 93580,16390 93708,16598 93708,16827 93708,17141 92878,20151 92825,20037 92772,19914 92168,17559 92067,17074 91965,16590 92009,16390 92212,16390 92283,16390 92340,16342 92340,16295 92340,16239 92031,16200 91502,16200 91043,16200 90664,16239 90664,16286 Z"/>
       </g>
      </g>
      <g class="com.sun.star.drawing.ClosedBezierShape">
       <g id="id68">
        <rect class="BoundingBox" stroke="none" fill="none" x="101732" y="16200" width="3618" height="7637"/>
        <path fill="rgb(0,0,0)" stroke="none" d="M 101732,16295 C 101732,16342 101798,16390 101878,16390 101970,16390 102058,16467 102107,16579 102182,16751 102191,17046 102213,19552 102244,22562 102248,22610 102513,23152 102738,23617 103033,23826 103452,23835 103977,23846 104215,23673 104493,23094 104639,22791 104740,22468 104776,22231 104806,22003 104837,20864 104851,19344 104873,16874 104877,16827 104978,16609 105040,16476 105133,16390 105217,16390 105287,16390 105349,16342 105349,16295 105349,16239 105120,16200 104753,16200 104171,16200 103982,16306 104339,16428 104621,16523 104643,16741 104643,19229 104643,21443 104608,22078 104454,22582 104189,23437 103514,23570 103192,22819 103046,22478 102998,21357 103020,18792 103033,16988 103042,16771 103117,16590 103174,16456 103254,16390 103373,16390 103466,16390 103540,16342 103540,16295 103540,16239 103210,16200 102636,16200 102063,16200 101732,16239 101732,16295 Z"/>
       </g>
      </g>
      <g class="com.sun.star.drawing.ClosedBezierShape">
       <g id="id69">
        <rect class="BoundingBox" stroke="none" fill="none" x="109361" y="16200" width="3927" height="7505"/>
        <path fill="rgb(0,0,0)" stroke="none" d="M 109383,16295 C 109396,16342 109476,16390 109555,16390 109648,16390 109732,16467 109784,16590 109864,16779 109868,16979 109868,19961 109868,23512 109881,23389 109542,23484 109445,23512 109361,23579 109361,23617 109361,23665 109780,23704 110287,23704 110874,23704 111214,23665 111214,23609 111214,23551 111161,23512 111099,23512 110975,23512 110812,23361 110764,23189 110746,23133 110728,22412 110728,21585 L 110728,20095 111346,20095 111963,20095 111963,21490 C 111963,23152 111937,23333 111663,23456 111562,23512 111478,23579 111478,23626 111478,23665 111884,23704 112382,23704 112956,23704 113287,23665 113287,23609 113287,23551 113229,23512 113159,23512 113093,23512 112982,23428 112916,23314 L 112801,23124 112801,19942 C 112801,16893 112806,16760 112890,16579 112943,16467 113035,16390 113132,16390 113216,16390 113287,16342 113287,16295 113287,16239 112956,16200 112382,16200 111809,16200 111478,16239 111478,16295 111478,16342 111544,16390 111628,16390 111738,16390 111805,16456 111871,16637 111955,16865 111963,17016 111963,18252 L 111963,19619 111346,19619 110728,19619 110728,18157 C 110728,16741 110733,16685 110825,16542 110878,16456 110989,16390 111068,16390 111147,16390 111214,16342 111214,16295 111214,16239 110874,16200 110283,16200 109679,16200 109365,16228 109383,16295 Z"/>
       </g>
      </g>
      <g class="com.sun.star.drawing.ClosedBezierShape">
       <g id="id70">
        <rect class="BoundingBox" stroke="none" fill="none" x="13295" y="13417" width="3222" height="3242"/>
        <path fill="rgb(0,0,0)" stroke="none" d="M 14442,13463 C 13992,13613 13643,13904 13436,14310 13308,14557 13295,14605 13295,15016 13295,15399 13308,15488 13410,15704 13908,16763 15280,16987 16074,16136 17022,15122 16347,13481 14954,13419 14755,13410 14548,13432 14442,13463 Z M 13996,14028 C 13988,14045 14014,14050 14063,14036 14213,13997 14208,14107 14054,14288 13895,14473 13674,14897 13582,15192 13476,15532 13441,15474 13458,15007 13476,14636 13498,14517 13599,14314 13732,14041 13926,13851 13983,13944 14001,13975 14010,14010 13996,14028 Z"/>
       </g>
      </g>
      <g class="com.sun.star.drawing.ClosedBezierShape">
       <g id="id71">
        <rect class="BoundingBox" stroke="none" fill="none" x="65" y="13499" width="11757" height="2268"/>
        <path fill="rgb(0,0,0)" stroke="none" d="M 75,13569 C 93,13613 318,14125 583,14707 L 1054,15766 1354,15752 C 1518,15748 3934,15633 6721,15501 9509,15369 11793,15258 11802,15258 11811,15258 11820,15130 11820,14972 11820,14751 11806,14685 11758,14685 11696,14685 3679,13855 1279,13604 23,13472 40,13472 75,13569 Z"/>
       </g>
      </g>
      <g class="com.sun.star.drawing.ClosedBezierShape">
       <g id="id72">
        <rect class="BoundingBox" stroke="none" fill="none" x="84115" y="18396" width="2023" height="5424"/>
        <path fill="rgb(0,0,0)" stroke="none" d="M 84822,18517 C 84460,18860 84213,19611 84138,20589 84041,21936 84252,23153 84672,23618 84927,23894 85355,23885 85602,23590 85797,23362 86141,22421 86097,22259 86079,22212 85991,22337 85898,22554 85686,23019 85497,23125 85267,22897 85077,22696 84967,22393 84870,21775 84733,20912 84707,20950 85466,20950 L 86136,20950 86105,20455 C 86048,19534 85827,18804 85519,18517 85342,18356 84998,18356 84822,18517 Z M 85307,18888 C 85426,19107 85501,19620 85505,20257 L 85505,20569 85152,20569 84799,20569 84799,20096 C 84799,19514 84883,19041 85024,18821 85157,18623 85170,18631 85307,18888 Z"/>
       </g>
      </g>
      <g class="com.sun.star.drawing.ClosedBezierShape">
       <g id="id73">
        <rect class="BoundingBox" stroke="none" fill="none" x="17909" y="15257" width="7433" height="1843"/>
        <path fill="rgb(0,0,0)" stroke="none" d="M 17925,15483 C 17908,15602 17903,15717 17917,15730 17952,15761 24268,17111 24329,17098 24356,17093 24607,16789 24889,16427 25304,15885 25383,15761 25322,15735 25264,15712 18212,15249 18005,15258 17978,15258 17943,15359 17925,15483 Z"/>
       </g>
      </g>
      <g class="com.sun.star.drawing.ClosedBezierShape">
       <g id="id74">
        <rect class="BoundingBox" stroke="none" fill="none" x="5128" y="15712" width="6885" height="2883"/>
        <path fill="rgb(0,0,0)" stroke="none" d="M 8577,16369 C 6857,16740 5442,17040 5433,17044 5419,17057 5115,18579 5128,18593 5137,18601 11665,16290 11960,16175 12022,16149 12026,16122 11978,15933 11934,15756 11907,15721 11815,15712 11757,15708 10302,16003 8577,16369 Z"/>
       </g>
      </g>
      <g class="com.sun.star.drawing.ClosedBezierShape">
       <g id="id75">
        <rect class="BoundingBox" stroke="none" fill="none" x="17576" y="16190" width="6932" height="3657"/>
        <path fill="rgb(0,0,0)" stroke="none" d="M 17639,16387 C 17590,16502 17564,16612 17581,16630 17599,16647 18874,17380 20408,18253 L 23205,19845 23857,19391 C 24219,19144 24510,18941 24506,18937 24479,18919 17868,16211 17806,16193 17749,16180 17705,16228 17639,16387 Z"/>
       </g>
      </g>
      <g class="com.sun.star.drawing.ClosedBezierShape">
       <g id="id76">
        <rect class="BoundingBox" stroke="none" fill="none" x="6440" y="16585" width="6043" height="4731"/>
        <path fill="rgb(0,0,0)" stroke="none" d="M 10430,17538 C 9486,18058 8203,18764 7585,19104 6968,19443 6452,19726 6443,19739 6416,19765 6668,21274 6703,21313 6721,21331 7012,21137 7347,20877 7682,20617 8979,19624 10218,18667 L 12481,16929 12362,16753 C 12300,16660 12225,16581 12198,16585 12172,16590 11378,17017 10430,17538 Z"/>
       </g>
      </g>
      <g class="com.sun.star.drawing.ClosedBezierShape">
       <g id="id77">
        <rect class="BoundingBox" stroke="none" fill="none" x="16994" y="16977" width="5843" height="5154"/>
        <path fill="rgb(0,0,0)" stroke="none" d="M 17110,17131 C 16982,17264 16969,17290 17026,17361 17172,17542 21406,22115 21441,22129 21499,22155 22848,21643 22835,21604 22817,21560 17331,16977 17291,16977 17273,16977 17194,17048 17110,17131 Z"/>
       </g>
      </g>
      <g class="com.sun.star.drawing.ClosedBezierShape">
       <g id="id78">
        <rect class="BoundingBox" stroke="none" fill="none" x="8237" y="17242" width="4784" height="6220"/>
        <path fill="rgb(0,0,0)" stroke="none" d="M 10606,19540 C 9423,20801 8405,21895 8347,21966 L 8237,22093 8630,22777 C 8841,23152 9027,23461 9040,23461 9053,23461 9970,22129 11082,20501 13265,17313 13146,17520 12873,17330 L 12754,17242 10606,19540 Z"/>
       </g>
      </g>
      <g class="com.sun.star.drawing.ClosedBezierShape">
       <g id="id79">
        <rect class="BoundingBox" stroke="none" fill="none" x="16193" y="17595" width="4359" height="6065"/>
        <path fill="rgb(0,0,0)" stroke="none" d="M 16374,17705 L 16193,17816 16537,18534 C 16727,18927 17366,20241 17962,21454 L 19038,23659 19585,23642 C 19880,23633 20220,23615 20339,23598 L 20551,23571 19148,21432 C 16841,17908 16630,17595 16594,17595 16577,17595 16475,17644 16374,17705 Z"/>
       </g>
      </g>
      <g class="com.sun.star.drawing.ClosedBezierShape">
       <g id="id80">
        <rect class="BoundingBox" stroke="none" fill="none" x="10795" y="17776" width="3178" height="7091"/>
        <path fill="rgb(0,0,0)" stroke="none" d="M 13416,17961 C 13367,18063 12966,18932 12525,19889 11325,22486 10813,23611 10795,23659 10773,23739 11700,24925 11735,24863 11783,24771 13985,17983 13971,17970 13963,17961 13857,17913 13729,17864 L 13499,17776 13416,17961 Z"/>
       </g>
      </g>
      <g class="com.sun.star.drawing.ClosedBezierShape">
       <g id="id81">
        <rect class="BoundingBox" stroke="none" fill="none" x="15359" y="17981" width="2446" height="6920"/>
        <path fill="rgb(0,0,0)" stroke="none" d="M 15571,18009 C 15460,18040 15368,18079 15359,18102 15346,18154 16210,24519 16237,24545 16268,24576 17785,24920 17803,24898 17825,24880 15831,18027 15791,17987 15778,17974 15677,17982 15571,18009 Z"/>
       </g>
      </g>
      <g class="com.sun.star.drawing.ClosedBezierShape">
       <g id="id82">
        <rect class="BoundingBox" stroke="none" fill="none" x="13426" y="18086" width="1460" height="7264"/>
        <path fill="rgb(0,0,0)" stroke="none" d="M 14421,18133 C 14421,18199 13463,24311 13428,24457 13410,24541 13499,24607 14116,24955 14509,25180 14831,25357 14840,25348 14849,25339 14858,23707 14867,21718 L 14884,18102 14655,18088 C 14483,18080 14421,18093 14421,18133 Z"/>
       </g>
      </g>
     </g>
    </g>
   </g>
  </g>
 </g>
</svg>